<svg width="24" height="24" viewBox="0 0 24 24" fill="none" xmlns="http://www.w3.org/2000/svg">
<path fill-rule="evenodd" clip-rule="evenodd" d="M3.99995 4.2002C3.00584 4.2002 2.19995 5.00608 2.19995 6.0002V10.2041L2.84081 10.3342C3.61643 10.4917 4.19995 11.1787 4.19995 12.0002C4.19995 12.8217 3.61643 13.5087 2.84081 13.6662L2.19995 13.7963V19.8002H20C20.9941 19.8002 21.7999 18.9943 21.7999 18.0002V13.7963L21.1591 13.6662C20.3835 13.5087 19.7999 12.8217 19.7999 12.0002C19.7999 11.1787 20.3835 10.4917 21.1591 10.3342L21.7999 10.2041V6.0002C21.7999 5.00608 20.9941 4.2002 20 4.2002H3.99995ZM3.79995 6.0002C3.79995 5.88974 3.88949 5.8002 3.99995 5.8002H20C20.1104 5.8002 20.2 5.88974 20.2 6.0002V8.96638C19.0238 9.471 18.2 10.6387 18.2 12.0002C18.2 13.3617 19.0238 14.5294 20.2 15.034V18.0002C20.2 18.1107 20.1104 18.2002 20 18.2002H3.79995V15.034C4.97607 14.5294 5.79995 13.3617 5.79995 12.0002C5.79995 10.6387 4.97607 9.471 3.79995 8.96638V6.0002ZM10.8646 9.69226C10.75 10.4569 10.0371 10.9838 9.27249 10.8692C8.50784 10.7546 7.9809 10.0418 8.09554 9.2771C8.21018 8.51245 8.92299 7.98551 9.68764 8.10015C10.4523 8.21479 10.9792 8.9276 10.8646 9.69226ZM8.2483 14.6169L14.6123 8.25293L15.7436 9.3843L9.37967 15.7483L8.2483 14.6169ZM15.8964 14.724C15.7818 15.4886 15.0689 16.0156 14.3043 15.9009C13.5396 15.7863 13.0127 15.0735 13.1273 14.3088C13.242 13.5442 13.9548 13.0173 14.7194 13.1319C15.4841 13.2465 16.011 13.9593 15.8964 14.724Z" fill="black"/>
</svg>
